<mxfile host="app.diagrams.net" agent="Mozilla/5.0 (Macintosh; Intel Mac OS X 10_15_7) AppleWebKit/537.36 (KHTML, like Gecko) Chrome/132.0.0.0 Safari/537.36" version="25.0.1">
  <diagram name="Page-1" id="318SbTDV6FVMj3jVbXXg">
    <mxGraphModel dx="1420" dy="1409" grid="1" gridSize="10" guides="1" tooltips="1" connect="1" arrows="1" fold="1" page="1" pageScale="1" pageWidth="1169" pageHeight="827" math="0" shadow="0">
      <root>
        <mxCell id="0" />
        <mxCell id="1" parent="0" />
        <mxCell id="60xWUgiRquiFLlAgO1g1-30" value="" style="group" vertex="1" connectable="0" parent="1">
          <mxGeometry x="60" y="367" width="110" height="93" as="geometry" />
        </mxCell>
        <mxCell id="60xWUgiRquiFLlAgO1g1-20" value="" style="image;html=1;image=img/lib/clip_art/computers/Server_Rack_128x128.png" vertex="1" parent="60xWUgiRquiFLlAgO1g1-30">
          <mxGeometry x="30" width="80" height="80" as="geometry" />
        </mxCell>
        <mxCell id="60xWUgiRquiFLlAgO1g1-19" value="Internal Services" style="image;html=1;image=img/lib/clip_art/computers/Server_Rack_128x128.png" vertex="1" parent="60xWUgiRquiFLlAgO1g1-30">
          <mxGeometry y="13" width="80" height="80" as="geometry" />
        </mxCell>
        <mxCell id="60xWUgiRquiFLlAgO1g1-32" value="" style="group" vertex="1" connectable="0" parent="1">
          <mxGeometry x="300" y="190" width="200" height="470" as="geometry" />
        </mxCell>
        <mxCell id="60xWUgiRquiFLlAgO1g1-44" style="edgeStyle=orthogonalEdgeStyle;rounded=0;orthogonalLoop=1;jettySize=auto;html=1;" edge="1" parent="60xWUgiRquiFLlAgO1g1-32" source="60xWUgiRquiFLlAgO1g1-28">
          <mxGeometry relative="1" as="geometry">
            <mxPoint x="479.9999999999998" y="215.00000000000023" as="targetPoint" />
          </mxGeometry>
        </mxCell>
        <mxCell id="60xWUgiRquiFLlAgO1g1-45" value="Broadcast" style="edgeLabel;html=1;align=center;verticalAlign=middle;resizable=0;points=[];" vertex="1" connectable="0" parent="60xWUgiRquiFLlAgO1g1-44">
          <mxGeometry x="0.4319" y="5" relative="1" as="geometry">
            <mxPoint x="-71" y="-10" as="offset" />
          </mxGeometry>
        </mxCell>
        <mxCell id="60xWUgiRquiFLlAgO1g1-28" value="" style="rounded=0;whiteSpace=wrap;html=1;" vertex="1" parent="60xWUgiRquiFLlAgO1g1-32">
          <mxGeometry width="200" height="430" as="geometry" />
        </mxCell>
        <mxCell id="60xWUgiRquiFLlAgO1g1-22" value="Broadcaster 1 (Active)" style="image;html=1;image=img/lib/clip_art/computers/Server_128x128.png" vertex="1" parent="60xWUgiRquiFLlAgO1g1-32">
          <mxGeometry x="60" y="20" width="80" height="80" as="geometry" />
        </mxCell>
        <mxCell id="60xWUgiRquiFLlAgO1g1-23" value="Broadcaster 2 (Active)" style="image;html=1;image=img/lib/clip_art/computers/Server_128x128.png" vertex="1" parent="60xWUgiRquiFLlAgO1g1-32">
          <mxGeometry x="60" y="114" width="80" height="80" as="geometry" />
        </mxCell>
        <mxCell id="60xWUgiRquiFLlAgO1g1-24" value="Broadcaster 3 (Active)" style="image;html=1;image=img/lib/clip_art/computers/Server_128x128.png" vertex="1" parent="60xWUgiRquiFLlAgO1g1-32">
          <mxGeometry x="60" y="200" width="80" height="80" as="geometry" />
        </mxCell>
        <mxCell id="60xWUgiRquiFLlAgO1g1-25" value="Broadcaster 4 (Active)" style="image;html=1;image=img/lib/clip_art/computers/Server_128x128.png" vertex="1" parent="60xWUgiRquiFLlAgO1g1-32">
          <mxGeometry x="60" y="290" width="80" height="80" as="geometry" />
        </mxCell>
        <mxCell id="60xWUgiRquiFLlAgO1g1-29" value="Broadcaster Cluster" style="text;html=1;align=center;verticalAlign=middle;whiteSpace=wrap;rounded=0;" vertex="1" parent="60xWUgiRquiFLlAgO1g1-32">
          <mxGeometry x="40" y="440" width="120" height="30" as="geometry" />
        </mxCell>
        <mxCell id="60xWUgiRquiFLlAgO1g1-33" style="edgeStyle=orthogonalEdgeStyle;rounded=0;orthogonalLoop=1;jettySize=auto;html=1;entryX=0;entryY=0.5;entryDx=0;entryDy=0;" edge="1" parent="1" target="60xWUgiRquiFLlAgO1g1-28">
          <mxGeometry relative="1" as="geometry">
            <mxPoint x="170" y="405" as="sourcePoint" />
          </mxGeometry>
        </mxCell>
        <mxCell id="60xWUgiRquiFLlAgO1g1-39" value="" style="rounded=0;whiteSpace=wrap;html=1;" vertex="1" parent="1">
          <mxGeometry x="430" y="660" width="440" height="150" as="geometry" />
        </mxCell>
        <mxCell id="60xWUgiRquiFLlAgO1g1-35" value="" style="group" vertex="1" connectable="0" parent="1">
          <mxGeometry x="510" y="680" width="280" height="80" as="geometry" />
        </mxCell>
        <mxCell id="60xWUgiRquiFLlAgO1g1-2" value="Private Key 2 Server 1 (Active)" style="image;html=1;image=img/lib/clip_art/computers/Server_128x128.png;container=0;" vertex="1" parent="60xWUgiRquiFLlAgO1g1-35">
          <mxGeometry width="80" height="80" as="geometry" />
        </mxCell>
        <mxCell id="60xWUgiRquiFLlAgO1g1-3" value="Private Key 2 Server 2 (Active)" style="image;html=1;image=img/lib/clip_art/computers/Server_128x128.png;container=0;" vertex="1" parent="60xWUgiRquiFLlAgO1g1-35">
          <mxGeometry x="200" width="80" height="80" as="geometry" />
        </mxCell>
        <mxCell id="60xWUgiRquiFLlAgO1g1-38" value="" style="rounded=0;whiteSpace=wrap;html=1;" vertex="1" parent="1">
          <mxGeometry x="440" y="30" width="440" height="150" as="geometry" />
        </mxCell>
        <mxCell id="60xWUgiRquiFLlAgO1g1-36" value="" style="group" vertex="1" connectable="0" parent="1">
          <mxGeometry x="510" y="50" width="280" height="80" as="geometry" />
        </mxCell>
        <mxCell id="60xWUgiRquiFLlAgO1g1-4" value="Private Key 1 Server 1 (Active)" style="image;html=1;image=img/lib/clip_art/computers/Server_128x128.png" vertex="1" parent="60xWUgiRquiFLlAgO1g1-36">
          <mxGeometry width="80" height="80" as="geometry" />
        </mxCell>
        <mxCell id="60xWUgiRquiFLlAgO1g1-5" value="Private Key 1 Server 2 (Active)" style="image;html=1;image=img/lib/clip_art/computers/Server_128x128.png" vertex="1" parent="60xWUgiRquiFLlAgO1g1-36">
          <mxGeometry x="200" width="80" height="80" as="geometry" />
        </mxCell>
        <mxCell id="60xWUgiRquiFLlAgO1g1-40" style="edgeStyle=orthogonalEdgeStyle;rounded=0;orthogonalLoop=1;jettySize=auto;html=1;entryX=0;entryY=0.5;entryDx=0;entryDy=0;" edge="1" parent="1" source="60xWUgiRquiFLlAgO1g1-28" target="60xWUgiRquiFLlAgO1g1-38">
          <mxGeometry relative="1" as="geometry" />
        </mxCell>
        <mxCell id="60xWUgiRquiFLlAgO1g1-42" value="1st Sign" style="edgeLabel;html=1;align=center;verticalAlign=middle;resizable=0;points=[];" vertex="1" connectable="0" parent="60xWUgiRquiFLlAgO1g1-40">
          <mxGeometry x="0.0128" y="2" relative="1" as="geometry">
            <mxPoint y="-1" as="offset" />
          </mxGeometry>
        </mxCell>
        <mxCell id="60xWUgiRquiFLlAgO1g1-41" style="edgeStyle=orthogonalEdgeStyle;rounded=0;orthogonalLoop=1;jettySize=auto;html=1;entryX=0;entryY=0.5;entryDx=0;entryDy=0;" edge="1" parent="1" source="60xWUgiRquiFLlAgO1g1-29" target="60xWUgiRquiFLlAgO1g1-39">
          <mxGeometry relative="1" as="geometry" />
        </mxCell>
        <mxCell id="60xWUgiRquiFLlAgO1g1-43" value="2nd Sign" style="edgeLabel;html=1;align=center;verticalAlign=middle;resizable=0;points=[];" vertex="1" connectable="0" parent="60xWUgiRquiFLlAgO1g1-41">
          <mxGeometry x="0.0432" y="2" relative="1" as="geometry">
            <mxPoint as="offset" />
          </mxGeometry>
        </mxCell>
        <mxCell id="60xWUgiRquiFLlAgO1g1-46" value="Internal Firewall" style="image;html=1;image=img/lib/clip_art/networking/Firewall_02_128x128.png" vertex="1" parent="1">
          <mxGeometry x="770" y="365" width="80" height="80" as="geometry" />
        </mxCell>
        <mxCell id="60xWUgiRquiFLlAgO1g1-50" style="edgeStyle=orthogonalEdgeStyle;rounded=0;orthogonalLoop=1;jettySize=auto;html=1;" edge="1" parent="1" source="60xWUgiRquiFLlAgO1g1-47" target="60xWUgiRquiFLlAgO1g1-49">
          <mxGeometry relative="1" as="geometry" />
        </mxCell>
        <mxCell id="60xWUgiRquiFLlAgO1g1-47" value="Internet" style="ellipse;shape=cloud;whiteSpace=wrap;html=1;" vertex="1" parent="1">
          <mxGeometry x="920" y="360" width="110" height="80" as="geometry" />
        </mxCell>
        <mxCell id="60xWUgiRquiFLlAgO1g1-48" style="edgeStyle=orthogonalEdgeStyle;rounded=0;orthogonalLoop=1;jettySize=auto;html=1;entryX=0.16;entryY=0.55;entryDx=0;entryDy=0;entryPerimeter=0;" edge="1" parent="1" source="60xWUgiRquiFLlAgO1g1-46" target="60xWUgiRquiFLlAgO1g1-47">
          <mxGeometry relative="1" as="geometry" />
        </mxCell>
        <mxCell id="60xWUgiRquiFLlAgO1g1-49" value="Blockchain" style="image;aspect=fixed;html=1;points=[];align=center;fontSize=12;image=img/lib/azure2/blockchain/Azure_Blockchain_Service.svg;" vertex="1" parent="1">
          <mxGeometry x="1102" y="367" width="68" height="68" as="geometry" />
        </mxCell>
      </root>
    </mxGraphModel>
  </diagram>
</mxfile>
